# xmcd CD database file
#
# Track frame offsets:
#	150
#	13525
#	24707
#	41290
#	49630
#	63937
#	76010
#	90020
#	106517
#	121525
#	134852
#	148252
#	160200
#	172172
#	182387
#	196450
#	213330
#	234002
#
# Disc length: 3266 seconds
#
# Revision: 3
# Processed by: cddbd v1.5.2PL0 Copyright (c) Steve Scherf et al.
# Submitted via: CDex 1.78
#
DISCID=d90cc012
DTITLE=Varios - New Country Girls Live
DYEAR=1991
DGENRE=Country
TTITLE0=Ball and chain
TTITLE1=Street talk
TTITLE2=Someone is falling in love
TTITLE3=Put yourself in my place
TTITLE4=Chains of gold
TTITLE5=Hey doll baby
TTITLE6=Stuck on you
TTITLE7=You're gettin' to me again
TTITLE8=Please Mr. please
TTITLE9=Love is fair
TTITLE10=It's want you don't do
TTITLE11=Lonely days, lonely nights
TTITLE12=Dixie man
TTITLE13=Just in case
TTITLE14=I fell in love again last night
TTITLE15=The night they drove old Dixie down
TTITLE16=Texas when I die
TTITLE17=Standard lie
EXTD=YEAR: 1991
EXTT0=
EXTT1=
EXTT2=
EXTT3=
EXTT4=
EXTT5=
EXTT6=
EXTT7=
EXTT8=
EXTT9=
EXTT10=
EXTT11=
EXTT12=
EXTT13=
EXTT14=
EXTT15=
EXTT16=
EXTT17=
PLAYORDER=
